# xmcd CD database file
#
# Track frame offsets:
#	150
#	19085
#	32730
#	50687
#	67192
#	79402
#	97135
#	117165
#	134062
#	153550
#	175145
#	193550
#
# Disc length: 2814 seconds
#
# Revision: 0
# Processed by: cddbd v1.4PL0 Copyright (c) Steve Scherf et al.
# Submitted via: CdAid (MTCDDB.DLL V2003.07.15)
#
DISCID=af0afc0c
DTITLE=Meredith Edwards - Reach
DYEAR=2001
DGENRE=Country
TTITLE0=In Any Given Moment
TTITLE1=A Rose Is A Rose
TTITLE2=The Bird Song
TTITLE3=Ready To Fall
TTITLE4=A Beautiful Mess
TTITLE5=You Get To Me
TTITLE6=But I Can't Let You Go
TTITLE7=Slow Learner
TTITLE8=This Is The Heartache
TTITLE9=Reach
TTITLE10=You
TTITLE11=Places In Your Heart
EXTD=ID3G:   2 YEAR: 2001
EXTT0=
EXTT1=
EXTT2=
EXTT3=
EXTT4=
EXTT5=
EXTT6=
EXTT7=
EXTT8=
EXTT9=
EXTT10=
EXTT11=
PLAYORDER=
